<svg width="225" height="201" viewBox="0 0 225 201" fill="none" xmlns="http://www.w3.org/2000/svg">
<path d="M0.394287 18.5997C0.394287 8.41589 8.64989 0.160278 18.8337 0.160278H205.994C216.178 0.160278 224.433 8.4159 224.433 18.5997V181.789C224.433 191.973 216.178 200.228 205.994 200.228H18.8337C8.6499 200.228 0.394287 191.973 0.394287 181.789V18.5997Z" fill="#2D2D2D"/>
<path fill-rule="evenodd" clip-rule="evenodd" d="M38.1951 25.9755V175.118C39.3807 175.216 39.3688 175.397 39.8063 175.397C82.808 175.41 125.96 175.41 168.962 175.41C174.883 175.41 180.651 175.415 186.573 175.397C186.963 175.396 187.586 175.216 187.586 175.118L187.585 25.9755H38.1951ZM173.357 158.132C173.357 160.133 173.057 159.952 171.128 159.952H55.708C53.779 159.952 53.6083 160.134 53.6083 158.133V42.8589C53.6083 40.8564 53.779 40.2031 55.8539 40.2031H170.982C173.058 40.2031 173.357 40.8564 173.357 43.0046V158.132ZM113.381 72.6514C113.127 71.8665 112.655 71.8262 111.967 71.8298C108.274 71.8523 104.581 71.9116 100.891 71.8298C99.7247 71.8048 99.2185 72.1546 98.858 73.2917C93.659 89.6356 88.4042 105.968 83.1685 122.301C82.3148 124.964 81.4884 127.638 80.5778 130.528C84.0292 130.528 87.183 130.481 90.3344 130.559C91.405 130.585 91.8508 130.233 92.1425 129.223C93.4921 124.571 94.9525 119.951 96.2885 115.295C96.6029 114.197 97.1118 113.901 98.2154 113.914C103.46 113.976 108.708 113.976 113.953 113.914C114.974 113.902 115.389 114.231 115.678 115.173C117.117 119.855 118.645 124.508 120.082 129.19C120.38 130.158 120.753 130.531 121.869 130.45C123.419 130.347 124.974 130.301 126.528 130.311H131.972L131.948 129.919C125.757 110.822 119.556 91.7531 113.381 72.6514ZM98.6635 105.413C101.079 97.1129 103.476 88.9941 105.837 80.9366C108.272 88.9657 110.748 97.1129 113.26 105.413H98.6635ZM134.231 130.311H146.088V87.6283H134.231V130.311ZM140.243 70.5019C136.731 70.5054 134.136 73 134.16 76.3541C134.183 79.7177 136.676 82.1127 140.156 82.1186C143.773 82.1234 146.33 79.7296 146.305 76.3612C146.28 72.9111 143.784 70.4983 140.243 70.5019Z" fill="white"/>
</svg>
