<svg width="225" height="201" viewBox="0 0 225 201" fill="none" xmlns="http://www.w3.org/2000/svg">
<path d="M0.468262 18.6983C0.468262 8.51452 8.72387 0.258911 18.9077 0.258911H206.068C216.252 0.258911 224.507 8.51453 224.507 18.6983V181.887C224.507 192.071 216.252 200.327 206.068 200.327H18.9077C8.72388 200.327 0.468262 192.071 0.468262 181.887V18.6983Z" fill="#2D2D2D"/>
<path d="M107.94 31.6705C107.416 31.7258 105.78 31.9195 104.337 32.0894C98.5207 32.7528 91.9255 34.4997 86.1373 36.9381C65.1893 45.6908 49.4233 64.8941 45.0736 86.9201C44.0497 92.1585 43.8008 94.7324 43.8008 100.774C43.8008 108.561 44.5746 113.934 46.6256 120.725C53.3305 142.945 70.786 160.372 93.0626 167.103C99.7681 169.128 105.171 169.902 112.928 169.902C120.716 169.902 126.089 169.128 132.88 167.077C155.099 160.372 172.527 142.916 179.258 120.64C181.283 113.934 182.057 108.532 182.057 100.774C182.057 97.4761 181.892 93.709 181.697 92.3219C179.452 76.3081 172.857 62.842 161.861 51.8415C150.885 40.9254 137.476 34.3049 121.793 32.0602C119.633 31.755 109.63 31.4757 107.94 31.6705ZM85.3592 75.3091C86.8311 75.7528 87.5195 76.1685 88.5173 77.1653C90.4579 79.1351 90.9016 80.2142 90.9016 83.1775C90.9016 85.3973 90.8173 85.8118 90.1538 86.9742C88.8767 89.1345 85.9133 91.1303 83.8634 91.1844C82.4207 91.2147 82.4802 90.5761 84.0582 88.9148C86.1633 86.7253 86.4674 85.8952 86.4674 82.6234C86.4415 79.4663 86.0529 78.3872 84.5853 77.4997C83.3645 76.7518 82.0365 76.807 80.0959 77.7194C75.0524 80.1329 69.5943 88.1669 67.4633 96.3974C64.6352 107.369 69.6495 116.15 77.9064 114.653C80.3156 114.209 84.8602 111.885 86.8311 110.054C88.4632 108.561 88.4632 108.532 88.6278 106.676C88.9914 102.794 91.7307 98.9172 95.3925 97.1166C97.0787 96.2831 97.4973 96.2029 99.7681 96.2029C101.928 96.2029 102.427 96.3135 103.48 96.8925C106.832 98.8084 106.14 103.267 102.512 103.267C100.406 103.267 99.3237 102.185 100.851 101.607C102.347 101.052 101.788 98.9725 100.047 98.5032C97.9961 97.9749 95.6672 99.3616 94.1994 102.021C92.4244 105.235 92.3433 109.06 94.0307 110.802C95.6672 112.548 97.7167 111.166 99.2979 107.199C100.127 105.178 101.319 104.096 102.706 104.096C103.924 104.096 104.148 104.845 103.619 107.119C102.842 110.636 103.37 111.55 105.559 110.472C106.278 110.138 107.47 109.365 108.189 108.811L109.547 107.728L110.464 102.934C111.462 97.56 111.847 96.8372 113.897 96.4528C115.868 96.0895 116.311 97.0613 115.588 100.135L115.198 101.856L116.641 100.384C120.048 96.8925 124.234 95.1758 125.675 96.6178C126.449 97.3913 126.364 98.3631 125.257 101.796C124.732 103.433 124.01 106.012 123.68 107.479C123.182 109.694 123.151 110.222 123.431 110.583C124.319 111.635 127.033 110.552 129.443 108.197L130.855 106.815L131.024 103.737C131.188 100.19 131.518 98.9172 132.461 97.7804C133.348 96.7284 134.956 95.954 135.814 96.1734C136.673 96.3974 136.673 97.2272 135.898 99.6667C134.816 103.018 134.93 110.747 136.038 110.747C136.482 110.747 138.752 108.366 140.194 106.371L141.273 104.899L140.414 104.017C138.917 102.436 138.557 101.412 138.557 98.8333C138.557 96.9525 138.697 96.2582 139.166 95.3409C139.944 93.9035 141.162 92.8515 142.604 92.4323C144.125 91.9626 146.011 92.7363 146.784 94.1229C147.562 95.5354 147.369 98.6931 146.37 100.858L145.651 102.435H146.62C147.951 102.435 148.476 102.104 150.86 99.8604C152.108 98.6683 153.549 97.6412 154.626 97.1424C158.867 95.1509 163.856 96.1734 164.685 99.2214C165.377 101.661 163.856 103.378 161.194 103.183C159.281 103.044 158.923 102.544 160.031 101.607C162.025 99.9406 160.031 97.8099 157.177 98.5844C155.625 99.002 153.879 100.745 152.967 102.769C151.135 106.815 152.108 111.58 154.737 111.58C155.79 111.58 157.649 109.5 158.369 107.479C159.227 105.15 161.028 103.683 162.385 104.21C163.133 104.486 163.189 105.234 162.719 107.589C162.191 110.168 162.11 112.578 162.524 113.685C162.69 114.099 163.189 114.877 163.662 115.402C164.545 116.399 164.575 116.759 163.827 117.232C163.467 117.481 162.993 117.372 161.832 116.734C160.225 115.901 158.838 114.404 158.339 112.992L158.035 112.163L156.927 112.992C156.288 113.435 155.291 113.934 154.711 114.099C152.411 114.709 149.583 113.131 148.256 110.472C147.727 109.444 147.562 106.427 147.951 105.263C148.172 104.624 148.172 104.624 147.283 105.069C146.814 105.318 145.817 105.593 145.043 105.678C143.766 105.818 143.571 105.956 142.3 107.563C140.498 109.803 137.31 112.827 136.008 113.466C133.239 114.848 132.326 114.46 131.603 111.604L131.104 109.694L129.911 110.747C128.39 112.078 125.342 113.685 123.595 114.074C121.933 114.433 120.158 113.906 119.438 112.797C118.362 111.136 118.721 107.618 120.437 102.879C121.709 99.3616 120.797 99.3072 117.583 102.659C115.199 105.178 114.176 106.98 113.512 109.778C112.82 112.688 111.986 113.74 110.105 114.183C108.968 114.433 108.438 113.74 108.663 112.218L108.828 110.996L107.775 111.719C106.278 112.743 104.393 113.685 103.091 114.045C101.788 114.404 100.072 114.019 99.6575 113.296C98.9098 112.024 98.9098 112.024 97.7472 112.937C95.2237 114.987 91.6214 114.404 89.7944 111.69L89.21 110.832L87.3841 112.522C82.1166 117.343 75.5254 119.503 70.6474 118.006C64.4404 116.125 61.0073 110.802 61.0625 103.129C61.0885 95.4257 64.4955 87.3086 70.2329 81.2965C73.4754 77.9142 76.5232 75.9184 79.6273 75.1706C81.8676 74.6164 83.2292 74.6456 85.3592 75.3102V75.3091Z" fill="white"/>
</svg>
