<svg width="225" height="201" viewBox="0 0 225 201" fill="none" xmlns="http://www.w3.org/2000/svg">
<path d="M0.541992 18.6983C0.541992 8.51452 8.7976 0.258911 18.9814 0.258911H206.142C216.326 0.258911 224.581 8.51453 224.581 18.6983V181.887C224.581 192.071 216.326 200.327 206.142 200.327H18.9814C8.79761 200.327 0.541992 192.071 0.541992 181.887V18.6983Z" fill="#2D2D2D"/>
<path fill-rule="evenodd" clip-rule="evenodd" d="M49.7078 80.1444C49.7078 80.1444 46.5802 77.8785 50.3364 74.863L59.086 67.0151C59.086 67.0151 61.5901 64.3712 64.2402 66.6746L145.003 127.971V157.362C145.003 157.362 144.964 161.98 139.054 161.474L49.7078 80.1444Z" fill="white"/>
<path fill-rule="evenodd" clip-rule="evenodd" d="M70.3908 99.144L49.4396 118.214C49.4396 118.214 47.2909 119.817 49.4396 122.687L59.167 131.543C59.167 131.543 61.4766 134.032 64.8911 131.202L87.0893 114.337L70.3908 99.144ZM107.219 99.144L145.747 69.9732L145.498 40.7875C145.498 40.7875 143.853 34.4149 138.362 37.7334L87.0905 84.003L107.219 99.144Z" fill="white"/>
<path fill-rule="evenodd" clip-rule="evenodd" d="M139.451 161.347C141.683 163.626 144.391 162.876 144.391 162.876L174.349 148.154C178.185 145.548 177.648 142.313 177.648 142.313V54.3857C177.648 50.5172 173.683 49.1829 173.683 49.1829L147.713 36.7008C142.042 33.2026 138.326 37.3293 138.326 37.3293C138.326 37.3293 143.104 33.8947 145.444 40.3933V156.655C145.444 157.454 145.272 158.239 144.932 158.949C144.25 160.329 142.758 161.609 139.207 161.073L139.451 161.347Z" fill="white"/>
</svg>
