<svg width="225" height="201" viewBox="0 0 225 201" fill="none" xmlns="http://www.w3.org/2000/svg">
<path d="M0.615967 18.7763C0.615967 8.59252 8.87157 0.336914 19.0554 0.336914H206.216C216.4 0.336914 224.655 8.59253 224.655 18.7763V181.965C224.655 192.149 216.4 200.405 206.216 200.405H19.0554C8.87158 200.405 0.615967 192.149 0.615967 181.965V18.7763Z" fill="#2D2D2D"/>
<path d="M73.9126 116.269C73.9126 124.011 67.5989 130.334 59.8564 130.334C52.1148 130.334 45.7927 124.011 45.7927 116.269C45.7927 108.528 52.1159 102.205 59.8574 102.205H73.9137L73.9126 116.269ZM80.9983 116.269C80.9983 108.528 87.3214 102.205 95.063 102.205C102.805 102.205 109.128 108.527 109.128 116.269V151.477C109.128 159.217 102.806 165.541 95.063 165.541C87.3214 165.541 80.9983 159.217 80.9983 151.477V116.269Z" fill="white"/>
<path d="M95.0628 59.8038C87.3214 59.8038 80.9983 53.4902 80.9983 45.7476C80.9983 38.0061 87.3214 31.684 95.0628 31.684C102.805 31.684 109.127 38.0071 109.127 45.7486V59.8049L95.0628 59.8038ZM95.0628 66.8895C102.805 66.8895 109.127 73.2127 109.127 80.9542C109.127 88.6957 102.805 95.0188 95.0628 95.0188H59.8564C52.1148 95.0188 45.7927 88.6968 45.7927 80.9542C45.7927 73.2127 52.1159 66.8895 59.8574 66.8895H95.0628Z" fill="white"/>
<path d="M151.529 80.9542C151.529 73.2126 157.842 66.8895 165.584 66.8895C173.326 66.8895 179.649 73.2126 179.649 80.9542C179.649 88.6957 173.326 95.0188 165.584 95.0188H151.529V80.9542ZM144.442 80.9542C144.442 88.6957 138.119 95.0188 130.378 95.0188C122.637 95.0188 116.313 88.6967 116.313 80.9542V45.7476C116.313 38.006 122.635 31.684 130.378 31.684C138.119 31.684 144.442 38.0071 144.442 45.7486V80.9542Z" fill="white"/>
<path d="M130.378 137.42C138.119 137.42 144.442 143.734 144.442 151.477C144.442 159.217 138.119 165.541 130.378 165.541C122.637 165.541 116.313 159.217 116.313 151.477V137.42H130.378ZM130.378 130.334C122.637 130.334 116.313 124.011 116.313 116.269C116.313 108.528 122.635 102.205 130.378 102.205H165.584C173.326 102.205 179.649 108.527 179.649 116.269C179.649 124.011 173.326 130.334 165.584 130.334H130.378Z" fill="white"/>
</svg>
