<svg width="225" height="201" viewBox="0 0 225 201" fill="none" xmlns="http://www.w3.org/2000/svg">
<path d="M0.468262 18.5997C0.468262 8.41589 8.72387 0.160278 18.9077 0.160278H206.068C216.252 0.160278 224.507 8.4159 224.507 18.5997V181.789C224.507 191.973 216.252 200.228 206.068 200.228H18.9077C8.72388 200.228 0.468262 191.973 0.468262 181.789V18.5997Z" fill="#2D2D2D"/>
<path fill-rule="evenodd" clip-rule="evenodd" d="M185.812 26.9097C143.397 26.8968 101.171 26.898 58.7552 26.898C52.6885 26.898 46.5175 26.8933 40.4509 26.9109C40.0668 26.9121 39.1909 27.09 39.1909 27.1872V174.769H186.73V27.1872C186.73 27.09 186.245 26.9097 185.812 26.9097ZM170.899 160.326C132.678 160.282 94.4705 160.291 56.2493 160.291C54.4039 160.291 54.4121 160.288 54.4121 158.386V43.8709C54.4132 41.9892 54.3945 42.4517 56.2598 42.4517H170.777C172.694 42.4517 172.679 41.988 172.679 43.9634V101.149C172.679 120.259 172.671 139.369 172.721 158.478C172.726 159.933 172.383 160.328 170.899 160.326ZM104.553 72.4795C96.745 70.6493 88.886 71.5521 81.0348 72.3542C79.3685 72.5252 79.05 73.2383 79.0547 74.7172C79.1051 92.5243 79.0032 110.33 79.0032 128.137V129.102H89.5417V108.188C95.3961 108.627 100.755 108.522 105.992 106.653C114.387 103.658 118.583 97.1563 118.129 87.6621C117.763 79.9947 112.947 74.4467 104.553 72.4795ZM102.267 98.6434C98.5262 100.466 94.5498 100.423 90.5511 99.8816C90.2396 99.8401 89.7607 99.2833 89.7584 98.9643C89.7115 92.7216 89.7232 86.4806 89.7232 80.0673C93.389 79.4958 96.8658 79.2172 100.334 80.0884C104.635 81.1691 107.131 83.9748 107.596 88.1878C108.106 92.8175 106.135 96.758 102.267 98.6434ZM141.261 106.964C139.54 106.021 137.654 105.387 135.867 104.56C134.216 103.795 132.55 103.042 130.98 102.129C129.884 101.493 129.386 100.382 129.386 99.0721C129.386 96.8566 130.902 95.0708 133.49 94.8587C135.421 94.7011 137.425 94.8993 139.337 95.257C140.949 95.5566 142.477 96.3099 144.118 96.8907L146.187 89.5496C142.269 87.648 138.283 86.9325 134.143 87.0789C130.624 87.2018 127.335 88.0988 124.364 90.1222C118.81 93.9036 116.1 103.948 124.423 109.345C126.537 110.716 128.982 111.575 131.275 112.671C132.701 113.353 134.189 113.934 135.538 114.746C137.238 115.77 137.816 117.436 137.521 119.359C137.232 121.251 135.964 122.449 134.201 122.725C132.233 123.034 130.142 123.234 128.207 122.893C125.469 122.412 122.822 121.394 120.041 120.576C119.543 122.438 119.069 124.497 118.421 126.502C118.066 127.6 118.275 128.142 119.352 128.572C125.929 131.183 132.623 131.721 139.354 129.411C144.384 127.684 147.451 124.114 147.85 118.675C148.239 113.374 145.85 109.481 141.261 106.964Z" fill="white"/>
</svg>
