<svg width="225" height="201" viewBox="0 0 225 201" fill="none" xmlns="http://www.w3.org/2000/svg">
<path d="M0.541992 18.5997C0.541992 8.41589 8.7976 0.160278 18.9814 0.160278H206.142C216.326 0.160278 224.581 8.4159 224.581 18.5997V181.789C224.581 191.973 216.326 200.228 206.142 200.228H18.9814C8.79761 200.228 0.541992 191.973 0.541992 181.789V18.5997Z" fill="#2D2D2D"/>
<path fill-rule="evenodd" clip-rule="evenodd" d="M185.886 26.9097C143.471 26.8968 101.245 26.898 58.8291 26.898C52.7625 26.898 46.5915 26.8933 40.5249 26.9109C40.1408 26.9121 39.2649 27.09 39.2649 27.1872V174.769H186.804V27.1872C186.804 27.09 186.319 26.9097 185.886 26.9097ZM170.973 160.326C132.752 160.282 94.5444 160.291 56.3233 160.291C54.4779 160.291 54.4861 160.288 54.4861 158.386V43.8709C54.4872 41.9892 54.4685 42.4517 56.3338 42.4517H170.85C172.768 42.4517 172.753 41.988 172.753 43.9634V101.149C172.753 120.259 172.745 139.369 172.795 158.478C172.8 159.933 172.457 160.328 170.973 160.326Z" fill="white"/>
<path d="M77.51 130.294V74.7459C77.51 74.368 77.6649 74.152 78.0264 74.152C83.3625 74.152 88.6963 73.8282 94.0339 73.8282C102.695 73.8282 112.073 76.8467 115.36 86.0822C116.134 88.3494 116.547 90.6706 116.547 93.0996C116.547 97.7426 115.515 101.575 113.45 104.598C107.68 113.043 97.6793 112.912 88.7153 112.912V130.239C88.7854 130.753 88.3564 130.995 87.9407 130.995H78.1297C77.7165 130.995 77.51 130.78 77.51 130.294ZM88.7669 84.5706V102.708C92.3212 102.974 96.041 103.003 99.456 101.845C103.226 100.736 105.291 97.4098 105.291 93.4241C105.395 90.0271 103.58 86.7681 100.489 85.5424C97.1142 84.1124 92.409 84.0267 88.7669 84.5706Z" fill="white"/>
<path d="M123.547 88.0021H132.609C133.109 88.0066 133.558 88.3673 133.69 88.8712C134.354 90.4126 134.435 92.2716 134.438 93.9359C135.992 92.0442 137.866 90.4681 139.966 89.2862C142.219 87.9536 144.773 87.2782 147.361 87.3307C147.79 87.2664 148.171 87.6639 148.109 88.1129V98.6296C148.109 99.0353 147.831 99.2372 147.278 99.2372C143.442 98.9606 137.471 99.9084 134.683 103.062V130.405C134.683 130.927 134.462 131.188 134.019 131.188H124.296C123.818 131.259 123.397 130.81 123.464 130.319V100.628C123.464 96.6492 123.546 92.5511 122.965 88.6106C122.876 88.2479 123.208 87.9106 123.547 88.0021Z" fill="white"/>
</svg>
