<svg width="225" height="201" viewBox="0 0 225 201" fill="none" xmlns="http://www.w3.org/2000/svg">
<path d="M0.615967 18.5997C0.615967 8.41589 8.87157 0.160278 19.0554 0.160278H206.216C216.4 0.160278 224.655 8.4159 224.655 18.5997V181.789C224.655 191.973 216.4 200.228 206.216 200.228H19.0554C8.87158 200.228 0.615967 191.973 0.615967 181.789V18.5997Z" fill="#2D2D2D"/>
<path d="M90.7435 166.604C102.866 166.604 112.645 156.824 112.645 144.702V122.801H90.7435C78.6213 122.801 68.842 132.58 68.842 144.702C68.842 156.824 78.6213 166.604 90.7435 166.604ZM68.842 100.899C68.842 88.7773 78.6213 78.998 90.7435 78.998H112.645V122.801H90.7435C78.6213 122.801 68.842 113.022 68.842 100.899ZM68.842 57.0966C68.842 44.9744 78.6213 35.1952 90.7435 35.1952H112.645V78.998H90.7435C78.6213 78.998 68.842 69.2188 68.842 57.0966ZM112.645 35.1952H134.546C146.668 35.1952 156.448 44.9744 156.448 57.0966C156.448 69.2188 146.668 78.998 134.546 78.998H112.645V35.1952ZM156.448 100.899C156.448 113.022 146.668 122.801 134.546 122.801C122.424 122.801 112.645 113.022 112.645 100.899C112.645 88.7773 122.424 78.998 134.546 78.998C146.668 78.998 156.448 88.7773 156.448 100.899Z" fill="white"/>
</svg>
