<svg width="225" height="201" viewBox="0 0 225 201" fill="none" xmlns="http://www.w3.org/2000/svg">
<path d="M0.394287 18.688C0.394287 8.50414 8.64989 0.248535 18.8337 0.248535H205.994C216.178 0.248535 224.433 8.50415 224.433 18.688V181.877C224.433 192.061 216.178 200.316 205.994 200.316H18.8337C8.6499 200.316 0.394287 192.061 0.394287 181.877V18.688Z" fill="#2D2D2D"/>
<path d="M95.1204 98.6285H131.325C141.403 98.6285 149.342 90.1007 149.342 79.9801V45.465C149.342 35.6412 141.108 28.2609 131.27 26.622C125.045 25.5852 118.612 25.1133 112.414 25.1431C106.218 25.1717 100.479 25.6994 95.2725 26.622C79.9324 29.33 77.3273 35.0042 77.3273 45.465V58.8958H113.335V63.8624H63.3912C52.8571 63.8624 43.6318 70.2047 40.7474 82.2523C37.4186 96.0589 37.2708 104.501 40.7474 118.918C43.3238 129.648 49.4761 137.119 60.0114 137.119H72.3608V120.918C72.3608 108.953 82.8253 98.6285 95.1204 98.6285ZM92.8376 50.0678C89.0807 50.0678 86.0362 46.9898 86.0362 43.183C86.0362 39.3599 89.0795 36.2533 92.8376 36.2533C96.5817 36.2533 99.6408 39.3599 99.6408 43.183C99.6399 46.9898 96.5798 50.0678 92.8376 50.0678ZM185.699 82.2523C183.094 71.763 178.121 63.8624 167.573 63.8624H154.309V79.9801C154.309 92.4586 143.39 102.353 131.325 102.353H95.1204C85.2018 102.353 77.3273 111.449 77.3273 121.383V155.9C77.3273 165.721 85.7022 171.5 95.2835 174.319C106.759 177.692 117.626 178.302 131.355 174.319C140.48 171.675 149.342 166.358 149.342 155.9V142.086H113.335V137.119H167.573C178.106 137.119 182.034 129.948 185.699 118.916C189.482 107.561 189.319 96.8168 185.699 82.2523ZM133.606 151.295C137.364 151.295 140.409 154.373 140.409 158.182C140.409 162.002 137.366 165.109 133.606 165.109C129.862 165.109 126.804 162.003 126.804 158.182C126.804 154.373 129.862 151.295 133.606 151.295Z" fill="white"/>
</svg>
