<svg width="225" height="201" viewBox="0 0 225 201" fill="none" xmlns="http://www.w3.org/2000/svg">
<path d="M0.468262 18.688C0.468262 8.50414 8.72387 0.248535 18.9077 0.248535H206.068C216.252 0.248535 224.507 8.50415 224.507 18.688V181.877C224.507 192.061 216.252 200.316 206.068 200.316H18.9077C8.72388 200.316 0.468262 192.061 0.468262 181.877V18.688Z" fill="#2D2D2D"/>
<path d="M61.3184 56.3256L70.788 162.528L113.279 174.321L155.889 162.512L165.369 56.3256H61.3184ZM142.542 115.578L139.785 141.27L139.795 143.47L113.343 150.858L113.322 150.877L86.6597 143.572L84.8559 123.22H97.9308L98.8583 133.508L113.348 137.375L113.343 137.393V137.355L127.889 133.253L129.424 116.178H99.0196L98.7596 113.415L98.1659 106.788L97.8542 103.269H130.581L131.772 90.3597H81.9254L81.6637 87.3212L81.0698 80.2445L80.7589 76.2766H146.007L145.693 80.1893L142.542 115.578ZM142.683 42.6814L134.293 32.8538H142.683V26.9858H123.906V32.1061L133.752 41.0689H123.906V46.9368H142.683V42.6814ZM120.385 42.6814L112.396 32.8538H120.385V26.9858H102.781V32.1061L111.857 41.0689H102.781V46.9368H120.385V42.6814ZM99.2602 41.0689H89.8718V32.8538H99.2602V26.9858H82.8303V46.9368H99.2602V41.0689Z" fill="white"/>
</svg>
