<svg width="225" height="201" viewBox="0 0 225 201" fill="none" xmlns="http://www.w3.org/2000/svg">
<path d="M0.541992 18.688C0.541992 8.50414 8.7976 0.248535 18.9814 0.248535H206.142C216.326 0.248535 224.581 8.50415 224.581 18.688V181.877C224.581 192.061 216.326 200.316 206.142 200.316H18.9814C8.79761 200.316 0.541992 192.061 0.541992 181.877V18.688Z" fill="#2D2D2D"/>
<path d="M60.4702 56.8989L70.0042 162.907L112.787 174.321L155.688 163.123L165.233 56.8989H60.4702ZM145.402 81.0328L144.804 87.9107L144.541 91.088H94.3554L95.554 105.235H143.348L143.028 107.866L139.946 141.947L139.719 143.94L112.851 151.171V151.165L112.82 151.179L85.967 144.205L84.1444 124.098H97.3103L98.2434 134.072L112.845 137.773L112.851 137.497V137.511L127.485 134.388L129.012 118.204H83.5584L80.3353 81.8498L80.0204 78.1197H145.716L145.402 81.0328ZM70.3579 26.9858H76.9859V33.5359H83.0503V26.9858H89.6795V46.8177H83.0503V40.1769H76.9871V46.8177H70.3579V26.9858ZM98.3955 33.563H92.5596V26.9858H110.862V33.563H105.024V46.8177H98.3955V33.563ZM120.679 26.9858L124.931 33.9545L129.178 26.9858H136.093V46.8177H129.49V36.9879L124.931 44.039H124.816L120.253 36.9879V46.8177H113.767V26.9858H120.679ZM139.393 26.9858H146.023V40.2629H155.345V46.8189H139.393V26.9858Z" fill="white"/>
</svg>
