<svg width="225" height="201" viewBox="0 0 225 201" fill="none" xmlns="http://www.w3.org/2000/svg">
<path d="M0.615967 18.688C0.615967 8.50414 8.87157 0.248535 19.0554 0.248535H206.216C216.4 0.248535 224.655 8.50415 224.655 18.688V181.877C224.655 192.061 216.4 200.316 206.216 200.316H19.0554C8.87158 200.316 0.615967 192.061 0.615967 181.877V18.688Z" fill="#2D2D2D"/>
<path d="M98.7396 105.587C80.3604 110.722 109.919 121.327 133.319 111.303C129.487 109.814 126.738 108.093 126.738 108.093C116.303 110.066 111.464 110.221 101.992 109.14C94.174 108.245 98.7396 105.587 98.7396 105.587ZM130.517 95.5712C116.688 98.232 108.7 98.1481 98.5801 97.1035C90.7564 96.295 95.8778 92.502 95.8778 92.502C75.6377 99.2204 107.144 106.842 135.431 98.5685C132.427 97.511 130.517 95.5712 130.517 95.5712ZM141.356 37.5715C141.356 37.5715 100.441 47.7882 119.981 70.305C125.75 76.9456 118.469 82.9164 118.469 82.9164C118.469 82.9164 133.108 75.3598 126.385 65.8937C120.105 57.0696 115.291 52.6874 141.356 37.5715ZM76.3423 124.334C124.047 132.066 163.301 120.851 150.93 115.267C150.93 115.267 154.309 118.054 147.206 120.209C133.703 124.299 90.9954 125.533 79.1331 120.371C74.8719 118.515 82.8677 115.942 85.3819 115.401C88.0045 114.833 89.5027 114.937 89.5027 114.937C84.7607 111.596 58.8498 121.494 76.3423 124.334ZM134.532 86.2243C136.825 84.6593 139.994 83.3 139.994 83.3C139.994 83.3 130.972 84.9136 121.981 85.6683C110.976 86.5912 99.1701 86.7732 93.2446 85.981C79.2138 84.1047 100.936 78.9443 100.936 78.9443C100.936 78.9443 92.4992 78.373 82.1269 83.3904C69.8587 89.3236 112.47 92.0269 134.532 86.2243ZM139.904 100.723C139.801 101.001 139.457 101.314 139.457 101.314C169.402 93.4415 158.391 73.5656 144.074 78.5968C142.818 79.0402 142.158 80.0742 142.158 80.0742C142.158 80.0742 142.952 79.7545 144.723 79.3848C151.959 77.8783 162.331 89.0748 139.904 100.723ZM114.599 78.7288C110.18 68.7415 95.2011 60.0063 114.606 44.6805C138.803 25.5813 126.387 13.1562 126.387 13.1562C131.395 32.8878 108.72 38.8488 100.536 51.1377C94.9623 59.5101 103.272 68.5093 114.599 78.7288ZM140.714 128.278C122.342 131.736 99.6809 131.334 86.2449 129.116C86.2449 129.116 88.9968 131.395 103.141 132.304C124.662 133.68 157.719 131.538 158.502 121.355C158.502 121.355 156.997 125.214 140.714 128.278ZM95.3154 149.671C91.3026 149.671 87.878 150.663 85.0191 151.925L85.8864 155.39C88.1365 154.563 90.9148 153.796 93.772 153.796C97.7337 153.796 99.3029 155.39 99.3029 158.689V161.435H97.6351C88.0156 161.435 83.6751 165.028 83.6751 170.642C83.6751 175.477 86.5368 178.157 91.921 178.157C95.3818 178.157 97.9679 176.982 100.383 174.89L100.821 178.113H104.861V157.972C104.861 152.97 102.188 149.671 95.3154 149.671ZM99.3029 171.216C97.9126 172.975 95.2813 173.965 93.3553 173.965C90.6132 173.965 89.2025 172.06 89.2025 169.42C89.2025 166.563 90.8731 164.215 97.2552 164.215H99.3029V171.216ZM121 172.11L119.839 167.096L114.619 150.317H108.517L116.927 178.113H123.912C127.921 168.385 130.783 158.656 132.371 150.317H126.435C125.503 157.266 123.633 164.805 121 172.11ZM146.578 149.671C142.563 149.671 139.057 150.663 136.2 151.925L137.028 155.39C139.281 154.563 142.201 153.796 145.059 153.796C149.015 153.796 150.727 155.39 150.727 158.689V161.435H148.742C139.12 161.435 134.781 165.028 134.781 170.642C134.781 175.477 137.638 178.157 143.023 178.157C146.487 178.157 149.067 176.982 151.488 174.89L151.93 178.113H156.286V157.972C156.286 152.97 153.445 149.671 146.578 149.671ZM144.617 173.94C141.872 173.94 140.383 172.045 140.383 169.407C140.383 166.551 141.98 164.215 148.355 164.215H150.727V171.165H150.634C148.597 172.554 146.537 173.94 144.617 173.94ZM74.2854 171.683C74.2854 176.229 73.6669 178.129 72.9247 179.606C72.07 181.264 70.0714 183.046 67.9199 184.15L70.6078 187.409C73.432 186.368 76.088 184.52 77.6849 182.187C79.2832 179.792 79.8448 177.335 79.8448 171.253V140.588H74.2854V171.683Z" fill="white"/>
</svg>
