<svg width="225" height="201" viewBox="0 0 225 201" fill="none" xmlns="http://www.w3.org/2000/svg">
<path d="M0.394287 18.7763C0.394287 8.59252 8.64989 0.336914 18.8337 0.336914H205.994C216.178 0.336914 224.433 8.59253 224.433 18.7763V181.965C224.433 192.149 216.178 200.405 205.994 200.405H18.8337C8.6499 200.405 0.394287 192.149 0.394287 181.965V18.7763Z" fill="#2D2D2D"/>
<path d="M113.255 39.061C68.7457 39.061 32.6631 63.226 32.6631 93.0365C32.6631 119.184 60.4246 140.986 97.2831 145.948V129.792C77.7016 123.634 64.3333 111.289 64.3333 97.0618C64.3333 76.6837 91.7586 60.1622 125.591 60.1622C159.422 60.1622 184.389 71.464 184.389 97.0618C184.389 110.266 177.749 119.666 166.676 125.672C168.193 126.816 169.473 128.282 170.334 129.978L170.822 130.802C185.064 121.068 193.848 107.742 193.848 93.0347C193.848 63.226 157.764 39.0597 113.255 39.0597V39.061ZM138.566 133.353C135.278 133.678 131.864 133.87 128.349 133.935L128.351 146.062C133.656 145.395 138.906 144.346 144.059 142.924L143.429 141.74C142.572 140.143 141.732 138.537 140.868 136.945C140.151 135.717 139.383 134.52 138.566 133.355V133.353Z" fill="white"/>
<path fill-rule="evenodd" clip-rule="evenodd" d="M155.401 122.659C155.401 122.659 160.28 124.132 163.113 125.565C164.095 126.063 165.798 127.055 167.024 128.36C167.744 129.123 168.347 129.989 168.812 130.93L188.036 163.342L156.965 163.355L142.437 136.072C142.437 136.072 139.461 130.959 137.63 129.477C136.103 128.241 135.452 127.801 133.943 127.801H126.56L126.566 163.336L99.0708 163.347V72.5754H154.283C154.283 72.5754 179.43 73.0287 179.43 96.953C179.43 120.878 155.402 122.659 155.402 122.659L155.401 122.659ZM143.442 92.265L126.797 92.2537L126.79 107.688L143.442 107.683C143.442 107.683 151.154 107.659 151.154 99.8314C151.154 91.8483 143.442 92.2638 143.442 92.2638V92.265Z" fill="white"/>
</svg>
